# Blender v3.1.2 OBJ File: ''
# www.blender.org
mtllib untitled.mtl
o Llave_Torus
v 0.050000 0.000000 0.000000
v 0.046180 0.011756 0.000000
v 0.036180 0.019021 0.000000
v 0.023820 0.019021 0.000000
v 0.013820 0.011756 0.000000
v 0.010000 0.000000 0.000000
v 0.013820 -0.011756 0.000000
v 0.023820 -0.019021 0.000000
v 0.036180 -0.019021 0.000000
v 0.046180 -0.011756 0.000000
v 0.038302 0.000000 -0.032139
v 0.035376 0.011756 -0.029684
v 0.027716 0.019021 -0.023256
v 0.018247 0.019021 -0.015311
v 0.010586 0.011756 -0.008883
v 0.007660 0.000000 -0.006428
v 0.010586 -0.011756 -0.008883
v 0.018247 -0.019021 -0.015311
v 0.027716 -0.019021 -0.023256
v 0.035376 -0.011756 -0.029684
v 0.008682 0.000000 -0.049240
v 0.008019 0.011756 -0.045479
v 0.006283 0.019021 -0.035631
v 0.004136 0.019021 -0.023458
v 0.002400 0.011756 -0.013610
v 0.001736 0.000000 -0.009848
v 0.002400 -0.011756 -0.013610
v 0.004136 -0.019021 -0.023458
v 0.006283 -0.019021 -0.035631
v 0.008019 -0.011756 -0.045479
v -0.025000 0.000000 -0.043301
v -0.023090 0.011756 -0.039993
v -0.018090 0.019021 -0.031333
v -0.011910 0.019021 -0.020628
v -0.006910 0.011756 -0.011968
v -0.005000 0.000000 -0.008660
v -0.006910 -0.011756 -0.011968
v -0.011910 -0.019021 -0.020628
v -0.018090 -0.019021 -0.031333
v -0.023090 -0.011756 -0.039993
v -0.046985 0.000000 -0.017101
v -0.043395 0.011756 -0.015795
v -0.033998 0.019021 -0.012374
v -0.022383 0.019021 -0.008147
v -0.012986 0.011756 -0.004727
v -0.009397 0.000000 -0.003420
v -0.012986 -0.011756 -0.004727
v -0.022383 -0.019021 -0.008147
v -0.033998 -0.019021 -0.012374
v -0.043395 -0.011756 -0.015795
v -0.046985 0.000000 0.017101
v -0.043395 0.011756 0.015795
v -0.033998 0.019021 0.012374
v -0.022383 0.019021 0.008147
v -0.012986 0.011756 0.004727
v -0.009397 0.000000 0.003420
v -0.012986 -0.011756 0.004727
v -0.022383 -0.019021 0.008147
v -0.033998 -0.019021 0.012374
v -0.043395 -0.011756 0.015795
v -0.025000 0.000000 0.043301
v -0.023090 0.011756 0.039993
v -0.018090 0.019021 0.031333
v -0.011910 0.019021 0.020628
v -0.006910 0.011756 0.011968
v -0.005000 0.000000 0.008660
v -0.006910 -0.011756 0.011968
v -0.011910 -0.019021 0.020628
v -0.018090 -0.019021 0.031333
v -0.023090 -0.011756 0.039993
v 0.008682 0.000000 0.049240
v 0.008019 0.011756 0.045479
v 0.006283 0.019021 0.035631
v 0.004136 0.019021 0.023458
v 0.002400 0.011756 0.013610
v 0.001736 0.000000 0.009848
v 0.002400 -0.011756 0.013610
v 0.004136 -0.019021 0.023458
v 0.006283 -0.019021 0.035631
v 0.008019 -0.011756 0.045479
v 0.038302 0.000000 0.032139
v 0.035376 0.011756 0.029684
v 0.027716 0.019021 0.023256
v 0.018247 0.019021 0.015311
v 0.010586 0.011756 0.008883
v 0.007660 0.000000 0.006428
v 0.010586 -0.011756 0.008883
v 0.018247 -0.019021 0.015311
v 0.027716 -0.019021 0.023256
v 0.035376 -0.011756 0.029684
v -0.201200 -0.000000 -0.016000
v -0.038800 0.000000 -0.016000
v -0.201200 -0.009405 -0.012944
v -0.038800 -0.009405 -0.012944
v -0.201200 -0.015217 -0.004944
v -0.038800 -0.015217 -0.004944
v -0.201200 -0.015217 0.004944
v -0.038800 -0.015217 0.004944
v -0.201200 -0.009405 0.012944
v -0.038800 -0.009405 0.012944
v -0.201200 -0.000000 0.016000
v -0.038800 0.000000 0.016000
v -0.201200 0.009405 0.012944
v -0.038800 0.009405 0.012944
v -0.201200 0.015217 0.004944
v -0.038800 0.015217 0.004944
v -0.201200 0.015217 -0.004944
v -0.038800 0.015217 -0.004944
v -0.201200 0.009405 -0.012944
v -0.038800 0.009405 -0.012944
v -0.150000 0.010000 -0.030000
v -0.150000 0.010000 0.010000
v -0.144122 0.008090 -0.030000
v -0.144122 0.008090 0.010000
v -0.140489 0.003090 -0.030000
v -0.140489 0.003090 0.010000
v -0.140489 -0.003090 -0.030000
v -0.140489 -0.003090 0.010000
v -0.144122 -0.008090 -0.030000
v -0.144122 -0.008090 0.010000
v -0.150000 -0.010000 -0.030000
v -0.150000 -0.010000 0.010000
v -0.155878 -0.008090 -0.030000
v -0.155878 -0.008090 0.010000
v -0.159511 -0.003090 -0.030000
v -0.159511 -0.003090 0.010000
v -0.159511 0.003090 -0.030000
v -0.159511 0.003090 0.010000
v -0.155878 0.008090 -0.030000
v -0.155878 0.008090 0.010000
v -0.180000 0.010000 -0.055000
v -0.180000 0.010000 -0.005000
v -0.174122 0.008090 -0.055000
v -0.174122 0.008090 -0.005000
v -0.170489 0.003090 -0.055000
v -0.170489 0.003090 -0.005000
v -0.170489 -0.003090 -0.055000
v -0.170489 -0.003090 -0.005000
v -0.174122 -0.008090 -0.055000
v -0.174122 -0.008090 -0.005000
v -0.180000 -0.010000 -0.055000
v -0.180000 -0.010000 -0.005000
v -0.185878 -0.008090 -0.055000
v -0.185878 -0.008090 -0.005000
v -0.189511 -0.003090 -0.055000
v -0.189511 -0.003090 -0.005000
v -0.189511 0.003090 -0.055000
v -0.189511 0.003090 -0.005000
v -0.185878 0.008090 -0.055000
v -0.185878 0.008090 -0.005000
v -0.120000 0.010000 -0.045000
v -0.120000 0.010000 0.005000
v -0.114122 0.008090 -0.045000
v -0.114122 0.008090 0.005000
v -0.110489 0.003090 -0.045000
v -0.110489 0.003090 0.005000
v -0.110489 -0.003090 -0.045000
v -0.110489 -0.003090 0.005000
v -0.114122 -0.008090 -0.045000
v -0.114122 -0.008090 0.005000
v -0.120000 -0.010000 -0.045000
v -0.120000 -0.010000 0.005000
v -0.125878 -0.008090 -0.045000
v -0.125878 -0.008090 0.005000
v -0.129511 -0.003090 -0.045000
v -0.129511 -0.003090 0.005000
v -0.129511 0.003090 -0.045000
v -0.129511 0.003090 0.005000
v -0.125878 0.008090 -0.045000
v -0.125878 0.008090 0.005000
vt 0.555556 0.600000
vt 0.666667 0.600000
vt 0.666667 0.700000
vt 0.555556 0.700000
vt 0.666667 0.800000
vt 0.555556 0.800000
vt 0.666667 0.900000
vt 0.555556 0.900000
vt 0.666667 1.000000
vt 0.555556 1.000000
vt 0.555556 -0.000000
vt 0.666667 -0.000000
vt 0.666667 0.100000
vt 0.555556 0.100000
vt 0.666667 0.200000
vt 0.555556 0.200000
vt 0.666667 0.300000
vt 0.555556 0.300000
vt 0.666667 0.400000
vt 0.555556 0.400000
vt 0.666667 0.500000
vt 0.555556 0.500000
vt 0.777778 0.600000
vt 0.777778 0.700000
vt 0.777778 0.800000
vt 0.777778 0.900000
vt 0.777778 1.000000
vt 0.777778 -0.000000
vt 0.777778 0.100000
vt 0.777778 0.200000
vt 0.777778 0.300000
vt 0.777778 0.400000
vt 0.777778 0.500000
vt 0.888889 0.600000
vt 0.888889 0.700000
vt 0.888889 0.800000
vt 0.888889 0.900000
vt 0.888889 1.000000
vt 0.888889 -0.000000
vt 0.888889 0.100000
vt 0.888889 0.200000
vt 0.888889 0.300000
vt 0.888889 0.400000
vt 0.888889 0.500000
vt 1.000000 0.600000
vt 1.000000 0.700000
vt 1.000000 0.800000
vt 1.000000 0.900000
vt 1.000000 1.000000
vt 1.000000 -0.000000
vt 1.000000 0.100000
vt 1.000000 0.200000
vt 1.000000 0.300000
vt 1.000000 0.400000
vt 1.000000 0.500000
vt 0.000000 0.600000
vt 0.111111 0.600000
vt 0.111111 0.700000
vt 0.000000 0.700000
vt 0.111111 0.800000
vt 0.000000 0.800000
vt 0.111111 0.900000
vt 0.000000 0.900000
vt 0.111111 1.000000
vt 0.000000 1.000000
vt 0.000000 -0.000000
vt 0.111111 -0.000000
vt 0.111111 0.100000
vt 0.000000 0.100000
vt 0.111111 0.200000
vt 0.000000 0.200000
vt 0.111111 0.300000
vt 0.000000 0.300000
vt 0.111111 0.400000
vt 0.000000 0.400000
vt 0.111111 0.500000
vt 0.000000 0.500000
vt 0.222222 0.600000
vt 0.222222 0.700000
vt 0.222222 0.800000
vt 0.222222 0.900000
vt 0.222222 1.000000
vt 0.222222 -0.000000
vt 0.222222 0.100000
vt 0.222222 0.200000
vt 0.222222 0.300000
vt 0.222222 0.400000
vt 0.222222 0.500000
vt 0.333333 0.600000
vt 0.333333 0.700000
vt 0.333333 0.800000
vt 0.333333 0.900000
vt 0.333333 1.000000
vt 0.333333 -0.000000
vt 0.333333 0.100000
vt 0.333333 0.200000
vt 0.333333 0.300000
vt 0.333333 0.400000
vt 0.333333 0.500000
vt 0.444444 0.600000
vt 0.444444 0.700000
vt 0.444444 0.800000
vt 0.444444 0.900000
vt 0.444444 1.000000
vt 0.444444 -0.000000
vt 0.444444 0.100000
vt 0.444444 0.200000
vt 0.444444 0.300000
vt 0.444444 0.400000
vt 0.444444 0.500000
vt 1.000000 0.500000
vt 1.000000 1.000000
vt 0.900000 1.000000
vt 0.900000 0.500000
vt 0.800000 1.000000
vt 0.800000 0.500000
vt 0.700000 1.000000
vt 0.700000 0.500000
vt 0.600000 1.000000
vt 0.600000 0.500000
vt 0.500000 1.000000
vt 0.500000 0.500000
vt 0.400000 1.000000
vt 0.400000 0.500000
vt 0.300000 1.000000
vt 0.300000 0.500000
vt 0.200000 1.000000
vt 0.200000 0.500000
vt 0.391068 0.444164
vt 0.250000 0.490000
vt 0.108932 0.444164
vt 0.021746 0.324164
vt 0.021746 0.175836
vt 0.108932 0.055836
vt 0.250000 0.010000
vt 0.391068 0.055836
vt 0.478254 0.175836
vt 0.478254 0.324164
vt 0.100000 1.000000
vt 0.100000 0.500000
vt -0.000000 1.000000
vt -0.000000 0.500000
vt 0.750000 0.490000
vt 0.891068 0.444164
vt 0.978254 0.324164
vt 0.978254 0.175836
vt 0.891068 0.055836
vt 0.750000 0.010000
vt 0.608932 0.055836
vt 0.521746 0.175836
vt 0.521746 0.324164
vt 0.608932 0.444164
vt 1.000000 0.500000
vt 1.000000 1.000000
vt 0.900000 1.000000
vt 0.900000 0.500000
vt 0.800000 1.000000
vt 0.800000 0.500000
vt 0.700000 1.000000
vt 0.700000 0.500000
vt 0.600000 1.000000
vt 0.600000 0.500000
vt 0.500000 1.000000
vt 0.500000 0.500000
vt 0.400000 1.000000
vt 0.400000 0.500000
vt 0.300000 1.000000
vt 0.300000 0.500000
vt 0.200000 1.000000
vt 0.200000 0.500000
vt 0.391068 0.444164
vt 0.250000 0.490000
vt 0.108932 0.444164
vt 0.021746 0.324164
vt 0.021746 0.175836
vt 0.108932 0.055836
vt 0.250000 0.010000
vt 0.391068 0.055836
vt 0.478254 0.175836
vt 0.478254 0.324164
vt 0.100000 1.000000
vt 0.100000 0.500000
vt -0.000000 1.000000
vt -0.000000 0.500000
vt 0.750000 0.490000
vt 0.891068 0.444164
vt 0.978254 0.324164
vt 0.978254 0.175836
vt 0.891068 0.055836
vt 0.750000 0.010000
vt 0.608932 0.055836
vt 0.521746 0.175836
vt 0.521746 0.324164
vt 0.608932 0.444164
vt 1.000000 0.500000
vt 1.000000 1.000000
vt 0.900000 1.000000
vt 0.900000 0.500000
vt 0.800000 1.000000
vt 0.800000 0.500000
vt 0.700000 1.000000
vt 0.700000 0.500000
vt 0.600000 1.000000
vt 0.600000 0.500000
vt 0.500000 1.000000
vt 0.500000 0.500000
vt 0.400000 1.000000
vt 0.400000 0.500000
vt 0.300000 1.000000
vt 0.300000 0.500000
vt 0.200000 1.000000
vt 0.200000 0.500000
vt 0.391068 0.444164
vt 0.250000 0.490000
vt 0.108932 0.444164
vt 0.021746 0.324164
vt 0.021746 0.175836
vt 0.108932 0.055836
vt 0.250000 0.010000
vt 0.391068 0.055836
vt 0.478254 0.175836
vt 0.478254 0.324164
vt 0.100000 1.000000
vt 0.100000 0.500000
vt -0.000000 1.000000
vt -0.000000 0.500000
vt 0.750000 0.490000
vt 0.891068 0.444164
vt 0.978254 0.324164
vt 0.978254 0.175836
vt 0.891068 0.055836
vt 0.750000 0.010000
vt 0.608932 0.055836
vt 0.521746 0.175836
vt 0.521746 0.324164
vt 0.608932 0.444164
vt 1.000000 0.500000
vt 1.000000 1.000000
vt 0.900000 1.000000
vt 0.900000 0.500000
vt 0.800000 1.000000
vt 0.800000 0.500000
vt 0.700000 1.000000
vt 0.700000 0.500000
vt 0.600000 1.000000
vt 0.600000 0.500000
vt 0.500000 1.000000
vt 0.500000 0.500000
vt 0.400000 1.000000
vt 0.400000 0.500000
vt 0.300000 1.000000
vt 0.300000 0.500000
vt 0.200000 1.000000
vt 0.200000 0.500000
vt 0.391068 0.444164
vt 0.250000 0.490000
vt 0.108932 0.444164
vt 0.021746 0.324164
vt 0.021746 0.175836
vt 0.108932 0.055836
vt 0.250000 0.010000
vt 0.391068 0.055836
vt 0.478254 0.175836
vt 0.478254 0.324164
vt 0.100000 1.000000
vt 0.100000 0.500000
vt -0.000000 1.000000
vt -0.000000 0.500000
vt 0.750000 0.490000
vt 0.891068 0.444164
vt 0.978254 0.324164
vt 0.978254 0.175836
vt 0.891068 0.055836
vt 0.750000 0.010000
vt 0.608932 0.055836
vt 0.521746 0.175836
vt 0.521746 0.324164
vt 0.608932 0.444164
vn 0.8987 0.2920 -0.3271
vn 0.5748 0.7911 -0.2092
vn 0.0000 1.0000 0.0000
vn -0.5748 0.7911 0.2092
vn -0.8987 0.2920 0.3271
vn -0.8987 -0.2920 0.3271
vn -0.5748 -0.7911 0.2092
vn 0.0000 -1.0000 0.0000
vn 0.5748 -0.7911 -0.2092
vn 0.8987 -0.2920 -0.3271
vn 0.4782 0.2920 -0.8283
vn 0.3058 0.7911 -0.5297
vn -0.3058 0.7911 0.5297
vn -0.4782 0.2920 0.8283
vn -0.4782 -0.2920 0.8283
vn -0.3058 -0.7911 0.5297
vn 0.3058 -0.7911 -0.5297
vn 0.4782 -0.2920 -0.8283
vn -0.1661 0.2920 -0.9419
vn -0.1062 0.7911 -0.6024
vn 0.1062 0.7911 0.6024
vn 0.1661 0.2920 0.9419
vn 0.1661 -0.2920 0.9419
vn 0.1062 -0.7911 0.6024
vn -0.1062 -0.7911 -0.6024
vn -0.1661 -0.2920 -0.9419
vn -0.7327 0.2920 -0.6148
vn -0.4686 0.7911 -0.3932
vn 0.4686 0.7911 0.3932
vn 0.7327 0.2920 0.6148
vn 0.7327 -0.2920 0.6148
vn 0.4686 -0.7911 0.3932
vn -0.4686 -0.7911 -0.3932
vn -0.7327 -0.2920 -0.6148
vn -0.9564 0.2920 -0.0000
vn -0.6117 0.7911 -0.0000
vn 0.6117 0.7911 0.0000
vn 0.9564 0.2920 0.0000
vn 0.9564 -0.2920 0.0000
vn 0.6117 -0.7911 0.0000
vn -0.6117 -0.7911 -0.0000
vn -0.9564 -0.2920 -0.0000
vn -0.7327 0.2920 0.6148
vn -0.4686 0.7911 0.3932
vn 0.4686 0.7911 -0.3932
vn 0.7327 0.2920 -0.6148
vn 0.7327 -0.2920 -0.6148
vn 0.4686 -0.7911 -0.3932
vn -0.4686 -0.7911 0.3932
vn -0.7327 -0.2920 0.6148
vn -0.1661 0.2920 0.9419
vn -0.1062 0.7911 0.6024
vn 0.1062 0.7911 -0.6024
vn 0.1661 0.2920 -0.9419
vn 0.1661 -0.2920 -0.9419
vn 0.1062 -0.7911 -0.6024
vn -0.1062 -0.7911 0.6024
vn -0.1661 -0.2920 0.9419
vn 0.4782 0.2920 0.8283
vn 0.3058 0.7911 0.5297
vn -0.3058 0.7911 -0.5297
vn -0.4782 0.2920 -0.8283
vn -0.4782 -0.2920 -0.8283
vn -0.3058 -0.7911 -0.5297
vn 0.3058 -0.7911 0.5297
vn 0.4782 -0.2920 0.8283
vn 0.8987 0.2920 0.3271
vn 0.5748 0.7911 0.2092
vn -0.5748 0.7911 -0.2092
vn -0.8987 0.2920 -0.3271
vn -0.8987 -0.2920 -0.3271
vn -0.5748 -0.7911 -0.2092
vn 0.5748 -0.7911 0.2092
vn 0.8987 -0.2920 0.3271
vn 0.0000 -0.3090 -0.9511
vn 0.0000 -0.8090 -0.5878
vn 0.0000 -0.8090 0.5878
vn 0.0000 -0.3090 0.9511
vn -0.0000 0.3090 0.9511
vn -0.0000 0.8090 0.5878
vn 1.0000 -0.0000 0.0000
vn -0.0000 0.8090 -0.5878
vn -0.0000 0.3090 -0.9511
vn -1.0000 0.0000 0.0000
vn 0.3090 0.9511 0.0000
vn 0.8090 0.5878 0.0000
vn 0.8090 -0.5878 -0.0000
vn 0.3090 -0.9511 -0.0000
vn -0.3090 -0.9511 -0.0000
vn -0.8090 -0.5878 -0.0000
vn 0.0000 0.0000 1.0000
vn -0.8090 0.5878 0.0000
vn -0.3090 0.9511 0.0000
vn 0.0000 0.0000 -1.0000
usemtl Material.001
s off
f 1/1/1 11/2/1 12/3/1 2/4/1
f 2/4/2 12/3/2 13/5/2 3/6/2
f 3/6/3 13/5/3 14/7/3 4/8/3
f 4/8/4 14/7/4 15/9/4 5/10/4
f 5/11/5 15/12/5 16/13/5 6/14/5
f 6/14/6 16/13/6 17/15/6 7/16/6
f 7/16/7 17/15/7 18/17/7 8/18/7
f 8/18/8 18/17/8 19/19/8 9/20/8
f 9/20/9 19/19/9 20/21/9 10/22/9
f 10/22/10 20/21/10 11/2/10 1/1/10
f 11/2/11 21/23/11 22/24/11 12/3/11
f 12/3/12 22/24/12 23/25/12 13/5/12
f 13/5/3 23/25/3 24/26/3 14/7/3
f 14/7/13 24/26/13 25/27/13 15/9/13
f 15/12/14 25/28/14 26/29/14 16/13/14
f 16/13/15 26/29/15 27/30/15 17/15/15
f 17/15/16 27/30/16 28/31/16 18/17/16
f 18/17/8 28/31/8 29/32/8 19/19/8
f 19/19/17 29/32/17 30/33/17 20/21/17
f 20/21/18 30/33/18 21/23/18 11/2/18
f 21/23/19 31/34/19 32/35/19 22/24/19
f 22/24/20 32/35/20 33/36/20 23/25/20
f 23/25/3 33/36/3 34/37/3 24/26/3
f 24/26/21 34/37/21 35/38/21 25/27/21
f 25/28/22 35/39/22 36/40/22 26/29/22
f 26/29/23 36/40/23 37/41/23 27/30/23
f 27/30/24 37/41/24 38/42/24 28/31/24
f 28/31/8 38/42/8 39/43/8 29/32/8
f 29/32/25 39/43/25 40/44/25 30/33/25
f 30/33/26 40/44/26 31/34/26 21/23/26
f 31/34/27 41/45/27 42/46/27 32/35/27
f 32/35/28 42/46/28 43/47/28 33/36/28
f 33/36/3 43/47/3 44/48/3 34/37/3
f 34/37/29 44/48/29 45/49/29 35/38/29
f 35/39/30 45/50/30 46/51/30 36/40/30
f 36/40/31 46/51/31 47/52/31 37/41/31
f 37/41/32 47/52/32 48/53/32 38/42/32
f 38/42/8 48/53/8 49/54/8 39/43/8
f 39/43/33 49/54/33 50/55/33 40/44/33
f 40/44/34 50/55/34 41/45/34 31/34/34
f 41/56/35 51/57/35 52/58/35 42/59/35
f 42/59/36 52/58/36 53/60/36 43/61/36
f 43/61/3 53/60/3 54/62/3 44/63/3
f 44/63/37 54/62/37 55/64/37 45/65/37
f 45/66/38 55/67/38 56/68/38 46/69/38
f 46/69/39 56/68/39 57/70/39 47/71/39
f 47/71/40 57/70/40 58/72/40 48/73/40
f 48/73/8 58/72/8 59/74/8 49/75/8
f 49/75/41 59/74/41 60/76/41 50/77/41
f 50/77/42 60/76/42 51/57/42 41/56/42
f 51/57/43 61/78/43 62/79/43 52/58/43
f 52/58/44 62/79/44 63/80/44 53/60/44
f 53/60/3 63/80/3 64/81/3 54/62/3
f 54/62/45 64/81/45 65/82/45 55/64/45
f 55/67/46 65/83/46 66/84/46 56/68/46
f 56/68/47 66/84/47 67/85/47 57/70/47
f 57/70/48 67/85/48 68/86/48 58/72/48
f 58/72/8 68/86/8 69/87/8 59/74/8
f 59/74/49 69/87/49 70/88/49 60/76/49
f 60/76/50 70/88/50 61/78/50 51/57/50
f 61/78/51 71/89/51 72/90/51 62/79/51
f 62/79/52 72/90/52 73/91/52 63/80/52
f 63/80/3 73/91/3 74/92/3 64/81/3
f 64/81/53 74/92/53 75/93/53 65/82/53
f 65/83/54 75/94/54 76/95/54 66/84/54
f 66/84/55 76/95/55 77/96/55 67/85/55
f 67/85/56 77/96/56 78/97/56 68/86/56
f 68/86/8 78/97/8 79/98/8 69/87/8
f 69/87/57 79/98/57 80/99/57 70/88/57
f 70/88/58 80/99/58 71/89/58 61/78/58
f 71/89/59 81/100/59 82/101/59 72/90/59
f 72/90/60 82/101/60 83/102/60 73/91/60
f 73/91/3 83/102/3 84/103/3 74/92/3
f 74/92/61 84/103/61 85/104/61 75/93/61
f 75/94/62 85/105/62 86/106/62 76/95/62
f 76/95/63 86/106/63 87/107/63 77/96/63
f 77/96/64 87/107/64 88/108/64 78/97/64
f 78/97/8 88/108/8 89/109/8 79/98/8
f 79/98/65 89/109/65 90/110/65 80/99/65
f 80/99/66 90/110/66 81/100/66 71/89/66
f 81/100/67 1/1/67 2/4/67 82/101/67
f 82/101/68 2/4/68 3/6/68 83/102/68
f 83/102/3 3/6/3 4/8/3 84/103/3
f 84/103/69 4/8/69 5/10/69 85/104/69
f 85/105/70 5/11/70 6/14/70 86/106/70
f 86/106/71 6/14/71 7/16/71 87/107/71
f 87/107/72 7/16/72 8/18/72 88/108/72
f 88/108/8 8/18/8 9/20/8 89/109/8
f 89/109/73 9/20/73 10/22/73 90/110/73
f 90/110/74 10/22/74 1/1/74 81/100/74
f 91/111/75 92/112/75 94/113/75 93/114/75
f 93/114/76 94/113/76 96/115/76 95/116/76
f 95/116/8 96/115/8 98/117/8 97/118/8
f 97/118/77 98/117/77 100/119/77 99/120/77
f 99/120/78 100/119/78 102/121/78 101/122/78
f 101/122/79 102/121/79 104/123/79 103/124/79
f 103/124/80 104/123/80 106/125/80 105/126/80
f 105/126/3 106/125/3 108/127/3 107/128/3
f 94/129/81 92/130/81 110/131/81 108/132/81 106/133/81 104/134/81 102/135/81 100/136/81 98/137/81 96/138/81
f 107/128/82 108/127/82 110/139/82 109/140/82
f 109/140/83 110/139/83 92/141/83 91/142/83
f 91/143/84 93/144/84 95/145/84 97/146/84 99/147/84 101/148/84 103/149/84 105/150/84 107/151/84 109/152/84
f 111/153/85 112/154/85 114/155/85 113/156/85
f 113/156/86 114/155/86 116/157/86 115/158/86
f 115/158/81 116/157/81 118/159/81 117/160/81
f 117/160/87 118/159/87 120/161/87 119/162/87
f 119/162/88 120/161/88 122/163/88 121/164/88
f 121/164/89 122/163/89 124/165/89 123/166/89
f 123/166/90 124/165/90 126/167/90 125/168/90
f 125/168/84 126/167/84 128/169/84 127/170/84
f 114/171/91 112/172/91 130/173/91 128/174/91 126/175/91 124/176/91 122/177/91 120/178/91 118/179/91 116/180/91
f 127/170/92 128/169/92 130/181/92 129/182/92
f 129/182/93 130/181/93 112/183/93 111/184/93
f 111/185/94 113/186/94 115/187/94 117/188/94 119/189/94 121/190/94 123/191/94 125/192/94 127/193/94 129/194/94
f 131/195/85 132/196/85 134/197/85 133/198/85
f 133/198/86 134/197/86 136/199/86 135/200/86
f 135/200/81 136/199/81 138/201/81 137/202/81
f 137/202/87 138/201/87 140/203/87 139/204/87
f 139/204/88 140/203/88 142/205/88 141/206/88
f 141/206/89 142/205/89 144/207/89 143/208/89
f 143/208/90 144/207/90 146/209/90 145/210/90
f 145/210/84 146/209/84 148/211/84 147/212/84
f 134/213/91 132/214/91 150/215/91 148/216/91 146/217/91 144/218/91 142/219/91 140/220/91 138/221/91 136/222/91
f 147/212/92 148/211/92 150/223/92 149/224/92
f 149/224/93 150/223/93 132/225/93 131/226/93
f 131/227/94 133/228/94 135/229/94 137/230/94 139/231/94 141/232/94 143/233/94 145/234/94 147/235/94 149/236/94
f 151/237/85 152/238/85 154/239/85 153/240/85
f 153/240/86 154/239/86 156/241/86 155/242/86
f 155/242/81 156/241/81 158/243/81 157/244/81
f 157/244/87 158/243/87 160/245/87 159/246/87
f 159/246/88 160/245/88 162/247/88 161/248/88
f 161/248/89 162/247/89 164/249/89 163/250/89
f 163/250/90 164/249/90 166/251/90 165/252/90
f 165/252/84 166/251/84 168/253/84 167/254/84
f 154/255/91 152/256/91 170/257/91 168/258/91 166/259/91 164/260/91 162/261/91 160/262/91 158/263/91 156/264/91
f 167/254/92 168/253/92 170/265/92 169/266/92
f 169/266/93 170/265/93 152/267/93 151/268/93
f 151/269/94 153/270/94 155/271/94 157/272/94 159/273/94 161/274/94 163/275/94 165/276/94 167/277/94 169/278/94
