# Generated with liteGL.js by Javi Agenjo

v -0.4953 -0.0071 -0.0034
v -0.4953 0.0285 -0.0034
v -0.5073 0.0070 -0.2501
v 0.0021 0.0011 -0.4751
v 0.0021 0.0367 -0.4751
v 0.2529 0.0239 -0.4679
v 0.5234 -0.0116 -0.0097
v 0.5234 0.0241 -0.0097
v 0.5179 0.0078 0.2438
v 0.0040 -0.0007 0.4677
v 0.0040 0.0349 0.4677
v -0.2519 0.0235 0.4807
v 0.2306 0.0332 0.2354
v 0.2555 0.0303 0.5006
v 0.5142 0.0155 0.4959
v -0.5000 -0.0178 0.2500
v -0.2522 -0.0076 0.2192
v -0.2519 -0.0121 0.4807
v 0.2306 -0.0025 0.2354
v 0.2555 -0.0054 0.5006
v 0.0040 -0.0007 0.4677
v 0.0013 -0.0007 -0.2214
v 0.2616 -0.0033 -0.2303
v 0.2438 -0.0103 0.0120
v -0.5073 -0.0286 -0.2501
v -0.2423 -0.0222 -0.2628
v -0.2500 -0.0178 0.0000
v -0.2522 0.0280 0.2192
v -0.2519 0.0235 0.4807
v 0.0040 0.0349 0.4677
v -0.2423 0.0135 -0.2628
v -0.2500 0.0178 0.0000
v 0.0000 0.0178 0.0000
v 0.2616 0.0323 -0.2303
v 0.2438 0.0254 0.0120
v 0.5234 0.0241 -0.0097
v 0.5142 0.0155 0.4959
v 0.2555 0.0303 0.5006
v 0.2555 -0.0054 0.5006
v 0.5000 0.0178 -0.5000
v 0.5102 0.0486 -0.2448
v 0.5102 0.0129 -0.2448
v -0.5000 0.0178 -0.5000
v -0.2534 0.0354 -0.4958
v -0.2542 0.0006 -0.4955
v -0.5000 -0.0178 0.2500
v -0.5007 -0.0218 0.5069
v -0.5007 0.0139 0.5069
v -0.2534 0.0354 -0.4958
v 0.0021 0.0367 -0.4751
v 0.0021 0.0011 -0.4751
v 0.5102 0.0129 -0.2448
v 0.5102 0.0486 -0.2448
v 0.5234 0.0241 -0.0097
v 0.2555 0.0303 0.5006
v 0.0040 0.0349 0.4677
v 0.0040 -0.0007 0.4677
v -0.2519 -0.0121 0.4807
v -0.2519 0.0235 0.4807
v -0.5007 0.0139 0.5069
v 0.0013 0.0350 -0.2214
v 0.0000 0.0178 0.0000
v 0.2438 0.0254 0.0120
v 0.0021 0.0367 -0.4751
v 0.0013 0.0350 -0.2214
v 0.2616 0.0323 -0.2303
v 0.5000 0.0178 -0.5000
v 0.2529 0.0239 -0.4679
v 0.2616 0.0323 -0.2303
v -0.5073 0.0070 -0.2501
v -0.4953 0.0285 -0.0034
v -0.2500 0.0178 0.0000
v -0.5000 0.0178 -0.5000
v -0.5073 0.0070 -0.2501
v -0.2423 0.0135 -0.2628
v -0.2534 0.0354 -0.4958
v -0.2423 0.0135 -0.2628
v 0.0013 0.0350 -0.2214
v -0.5000 0.0178 0.2500
v -0.5007 0.0139 0.5069
v -0.2519 0.0235 0.4807
v -0.4953 0.0285 -0.0034
v -0.5000 0.0178 0.2500
v -0.2522 0.0280 0.2192
v 0.0000 0.0178 0.0000
v -0.2500 0.0178 0.0000
v -0.2522 0.0280 0.2192
v -0.2423 -0.0222 -0.2628
v 0.0013 -0.0007 -0.2214
v 0.0000 -0.0178 0.0000
v -0.2542 0.0006 -0.4955
v 0.0021 0.0011 -0.4751
v 0.0013 -0.0007 -0.2214
v -0.5000 -0.0178 -0.5000
v -0.2542 0.0006 -0.4955
v -0.2423 -0.0222 -0.2628
v 0.2616 -0.0033 -0.2303
v 0.5102 0.0129 -0.2448
v 0.5234 -0.0116 -0.0097
v 0.5000 -0.0178 -0.5000
v 0.5102 0.0129 -0.2448
v 0.2616 -0.0033 -0.2303
v 0.0021 0.0011 -0.4751
v 0.2529 -0.0118 -0.4679
v 0.2616 -0.0033 -0.2303
v 0.2306 -0.0025 0.2354
v 0.5179 -0.0279 0.2438
v 0.5142 -0.0202 0.4959
v 0.2438 -0.0103 0.0120
v 0.5234 -0.0116 -0.0097
v 0.5179 -0.0279 0.2438
v 0.2438 -0.0103 0.0120
v 0.2306 -0.0025 0.2354
v 0.0029 -0.0099 0.2217
v 0.0029 -0.0099 0.2217
v 0.0040 -0.0007 0.4677
v -0.2519 -0.0121 0.4807
v -0.2500 -0.0178 0.0000
v 0.0000 -0.0178 0.0000
v 0.0029 -0.0099 0.2217
v -0.4953 -0.0071 -0.0034
v -0.2500 -0.0178 0.0000
v -0.2522 -0.0076 0.2192
v 0.2306 0.0332 0.2354
v 0.0038 0.0308 0.2216
v 0.0040 0.0349 0.4677
v 0.2438 0.0254 0.0120
v 0.0000 0.0178 0.0000
v 0.0038 0.0308 0.2216
v 0.2438 0.0254 0.0120
v 0.2306 0.0332 0.2354
v 0.5179 0.0078 0.2438
v 0.5179 0.0078 0.2438
v 0.5142 0.0155 0.4959
v 0.5142 -0.0202 0.4959
v 0.2529 -0.0118 -0.4679
v 0.2529 0.0239 -0.4679
v 0.5000 0.0178 -0.5000
v -0.5073 0.0070 -0.2501
v -0.5000 0.0178 -0.5000
v -0.5000 -0.0178 -0.5000
v -0.5000 0.0178 0.2500
v -0.4953 0.0285 -0.0034
v -0.4953 -0.0071 -0.0034
v -0.4953 -0.0071 -0.0034
v -0.5073 0.0070 -0.2501
v -0.5073 -0.0286 -0.2501
v 0.0021 0.0011 -0.4751
v 0.2529 0.0239 -0.4679
v 0.2529 -0.0118 -0.4679
v 0.5234 -0.0116 -0.0097
v 0.5179 0.0078 0.2438
v 0.5179 -0.0279 0.2438
v 0.0040 -0.0007 0.4677
v -0.2519 0.0235 0.4807
v -0.2519 -0.0121 0.4807
v 0.2306 0.0332 0.2354
v 0.5142 0.0155 0.4959
v 0.5179 0.0078 0.2438
v -0.5000 -0.0178 0.2500
v -0.2519 -0.0121 0.4807
v -0.5007 -0.0218 0.5069
v 0.2306 -0.0025 0.2354
v 0.0040 -0.0007 0.4677
v 0.0029 -0.0099 0.2217
v 0.0013 -0.0007 -0.2214
v 0.2438 -0.0103 0.0120
v 0.0000 -0.0178 0.0000
v -0.5073 -0.0286 -0.2501
v -0.2500 -0.0178 0.0000
v -0.4953 -0.0071 -0.0034
v -0.2522 0.0280 0.2192
v 0.0040 0.0349 0.4677
v 0.0038 0.0308 0.2216
v -0.2423 0.0135 -0.2628
v 0.0000 0.0178 0.0000
v 0.0013 0.0350 -0.2214
v 0.2616 0.0323 -0.2303
v 0.5234 0.0241 -0.0097
v 0.5102 0.0486 -0.2448
v 0.5142 0.0155 0.4959
v 0.2555 -0.0054 0.5006
v 0.5142 -0.0202 0.4959
v 0.5000 0.0178 -0.5000
v 0.5102 0.0129 -0.2448
v 0.5000 -0.0178 -0.5000
v -0.5000 0.0178 -0.5000
v -0.2542 0.0006 -0.4955
v -0.5000 -0.0178 -0.5000
v -0.5000 -0.0178 0.2500
v -0.5007 0.0139 0.5069
v -0.5000 0.0178 0.2500
v -0.2534 0.0354 -0.4958
v 0.0021 0.0011 -0.4751
v -0.2542 0.0006 -0.4955
v 0.5102 0.0129 -0.2448
v 0.5234 0.0241 -0.0097
v 0.5234 -0.0116 -0.0097
v 0.2555 0.0303 0.5006
v 0.0040 -0.0007 0.4677
v 0.2555 -0.0054 0.5006
v -0.2519 -0.0121 0.4807
v -0.5007 0.0139 0.5069
v -0.5007 -0.0218 0.5069
v 0.0013 0.0350 -0.2214
v 0.2438 0.0254 0.0120
v 0.2616 0.0323 -0.2303
v 0.0021 0.0367 -0.4751
v 0.2616 0.0323 -0.2303
v 0.2529 0.0239 -0.4679
v 0.5000 0.0178 -0.5000
v 0.2616 0.0323 -0.2303
v 0.5102 0.0486 -0.2448
v -0.5073 0.0070 -0.2501
v -0.2500 0.0178 0.0000
v -0.2423 0.0135 -0.2628
v -0.5000 0.0178 -0.5000
v -0.2423 0.0135 -0.2628
v -0.2534 0.0354 -0.4958
v -0.2534 0.0354 -0.4958
v 0.0013 0.0350 -0.2214
v 0.0021 0.0367 -0.4751
v -0.5000 0.0178 0.2500
v -0.2519 0.0235 0.4807
v -0.2522 0.0280 0.2192
v -0.4953 0.0285 -0.0034
v -0.2522 0.0280 0.2192
v -0.2500 0.0178 0.0000
v 0.0000 0.0178 0.0000
v -0.2522 0.0280 0.2192
v 0.0038 0.0308 0.2216
v -0.2423 -0.0222 -0.2628
v 0.0000 -0.0178 0.0000
v -0.2500 -0.0178 0.0000
v -0.2542 0.0006 -0.4955
v 0.0013 -0.0007 -0.2214
v -0.2423 -0.0222 -0.2628
v -0.5000 -0.0178 -0.5000
v -0.2423 -0.0222 -0.2628
v -0.5073 -0.0286 -0.2501
v 0.2616 -0.0033 -0.2303
v 0.5234 -0.0116 -0.0097
v 0.2438 -0.0103 0.0120
v 0.5000 -0.0178 -0.5000
v 0.2616 -0.0033 -0.2303
v 0.2529 -0.0118 -0.4679
v 0.0021 0.0011 -0.4751
v 0.2616 -0.0033 -0.2303
v 0.0013 -0.0007 -0.2214
v 0.2306 -0.0025 0.2354
v 0.5142 -0.0202 0.4959
v 0.2555 -0.0054 0.5006
v 0.2438 -0.0103 0.0120
v 0.5179 -0.0279 0.2438
v 0.2306 -0.0025 0.2354
v 0.2438 -0.0103 0.0120
v 0.0029 -0.0099 0.2217
v 0.0000 -0.0178 0.0000
v 0.0029 -0.0099 0.2217
v -0.2519 -0.0121 0.4807
v -0.2522 -0.0076 0.2192
v -0.2500 -0.0178 0.0000
v 0.0029 -0.0099 0.2217
v -0.2522 -0.0076 0.2192
v -0.4953 -0.0071 -0.0034
v -0.2522 -0.0076 0.2192
v -0.5000 -0.0178 0.2500
v 0.2306 0.0332 0.2354
v 0.0040 0.0349 0.4677
v 0.2555 0.0303 0.5006
v 0.2438 0.0254 0.0120
v 0.0038 0.0308 0.2216
v 0.2306 0.0332 0.2354
v 0.2438 0.0254 0.0120
v 0.5179 0.0078 0.2438
v 0.5234 0.0241 -0.0097
v 0.5179 0.0078 0.2438
v 0.5142 -0.0202 0.4959
v 0.5179 -0.0279 0.2438
v 0.2529 -0.0118 -0.4679
v 0.5000 0.0178 -0.5000
v 0.5000 -0.0178 -0.5000
v -0.5073 0.0070 -0.2501
v -0.5000 -0.0178 -0.5000
v -0.5073 -0.0286 -0.2501
v -0.5000 0.0178 0.2500
v -0.4953 -0.0071 -0.0034
v -0.5000 -0.0178 0.2500

vn -0.9988 0.0000 0.0484
vn -0.9988 0.0000 0.0484
vn -0.9988 0.0000 0.0484
vn 0.0284 0.0000 -0.9996
vn 0.0284 0.0000 -0.9996
vn 0.0284 0.0000 -0.9996
vn 0.9998 0.0000 0.0216
vn 0.9998 0.0000 0.0216
vn 0.9998 0.0000 0.0216
vn 0.0508 0.0000 0.9987
vn 0.0508 0.0000 0.9987
vn 0.0508 0.0000 0.9987
vn 0.0571 0.9984 0.0057
vn 0.0571 0.9984 0.0057
vn 0.0571 0.9984 0.0057
vn 0.0390 -0.9991 -0.0173
vn 0.0390 -0.9991 -0.0173
vn 0.0390 -0.9991 -0.0173
vn -0.0173 -0.9998 -0.0094
vn -0.0173 -0.9998 -0.0094
vn -0.0173 -0.9998 -0.0094
vn -0.0112 -0.9995 -0.0295
vn -0.0112 -0.9995 -0.0295
vn -0.0112 -0.9995 -0.0295
vn 0.0252 -0.9995 0.0173
vn 0.0252 -0.9995 0.0173
vn 0.0252 -0.9995 0.0173
vn -0.0436 0.9989 0.0173
vn -0.0436 0.9989 0.0173
vn -0.0436 0.9989 0.0173
vn 0.0000 0.9999 -0.0166
vn 0.0000 0.9999 -0.0166
vn 0.0000 0.9999 -0.0166
vn 0.0070 0.9995 0.0292
vn 0.0070 0.9995 0.0292
vn 0.0070 0.9995 0.0292
vn 0.0179 0.0000 0.9998
vn 0.0179 0.0000 0.9998
vn 0.0179 0.0000 0.9998
vn 0.9992 0.0000 -0.0397
vn 0.9992 0.0000 -0.0397
vn 0.9992 0.0000 -0.0397
vn 0.0178 -0.0078 -0.9998
vn 0.0178 -0.0078 -0.9998
vn 0.0178 -0.0078 -0.9998
vn -1.0000 0.0000 -0.0027
vn -1.0000 0.0000 -0.0027
vn -1.0000 0.0000 -0.0027
vn 0.0807 0.0000 -0.9967
vn 0.0807 0.0000 -0.9967
vn 0.0807 0.0000 -0.9967
vn 0.9984 0.0000 -0.0563
vn 0.9984 0.0000 -0.0563
vn 0.9984 0.0000 -0.0563
vn -0.1297 0.0000 0.9916
vn -0.1297 0.0000 0.9916
vn -0.1297 0.0000 0.9916
vn 0.1046 0.0000 0.9945
vn 0.1046 0.0000 0.9945
vn 0.1046 0.0000 0.9945
vn -0.0346 0.9964 0.0770
vn -0.0346 0.9964 0.0770
vn -0.0346 0.9964 0.0770
vn 0.0105 0.9999 0.0068
vn 0.0105 0.9999 0.0068
vn 0.0105 0.9999 0.0068
vn 0.0199 0.9991 -0.0362
vn 0.0199 0.9991 -0.0362
vn 0.0199 0.9991 -0.0362
vn 0.0445 0.9950 -0.0888
vn 0.0445 0.9950 -0.0888
vn 0.0445 0.9950 -0.0888
vn -0.0223 0.9988 0.0425
vn -0.0223 0.9988 0.0425
vn -0.0223 0.9988 0.0425
vn -0.1041 0.9897 0.0982
vn -0.1041 0.9897 0.0982
vn -0.1041 0.9897 0.0982
vn -0.0371 0.9992 0.0152
vn -0.0371 0.9992 0.0152
vn -0.0371 0.9992 0.0152
vn -0.0360 0.9985 0.0414
vn -0.0360 0.9985 0.0414
vn -0.0360 0.9985 0.0414
vn 0.0000 0.9989 -0.0465
vn 0.0000 0.9989 -0.0465
vn 0.0000 0.9989 -0.0465
vn 0.1006 -0.9920 -0.0763
vn 0.1006 -0.9920 -0.0763
vn 0.1006 -0.9920 -0.0763
vn 0.0023 -1.0000 -0.0068
vn 0.0023 -1.0000 -0.0068
vn 0.0023 -1.0000 -0.0068
vn 0.0763 -0.9919 -0.1011
vn 0.0763 -0.9919 -0.1011
vn 0.0763 -0.9919 -0.1011
vn 0.0587 -0.9925 -0.1069
vn 0.0587 -0.9925 -0.1069
vn 0.0587 -0.9925 -0.1069
vn 0.0717 -0.9906 0.1166
vn 0.0717 -0.9906 0.1166
vn 0.0717 -0.9906 0.1166
vn -0.0521 -0.9979 0.0373
vn -0.0521 -0.9979 0.0373
vn -0.0521 -0.9979 0.0373
vn -0.0889 -0.9956 0.0292
vn -0.0889 -0.9956 0.0292
vn -0.0889 -0.9956 0.0292
vn -0.0097 -0.9979 -0.0644
vn -0.0097 -0.9979 -0.0644
vn -0.0097 -0.9979 -0.0644
vn 0.0302 -0.9989 0.0367
vn 0.0302 -0.9989 0.0367
vn 0.0302 -0.9989 0.0367
vn 0.0463 -0.9982 0.0368
vn 0.0463 -0.9982 0.0368
vn 0.0463 -0.9982 0.0368
vn 0.0000 -0.9994 0.0359
vn 0.0000 -0.9994 0.0359
vn 0.0000 -0.9994 0.0359
vn -0.0441 -0.9980 0.0460
vn -0.0441 -0.9980 0.0460
vn -0.0441 -0.9980 0.0460
vn -0.0097 0.9998 -0.0169
vn -0.0097 0.9998 -0.0169
vn -0.0097 0.9998 -0.0169
vn -0.0280 0.9979 -0.0577
vn -0.0280 0.9979 -0.0577
vn -0.0280 0.9979 -0.0577
vn 0.0889 0.9956 -0.0295
vn 0.0889 0.9956 -0.0295
vn 0.0889 0.9956 -0.0295
vn 0.9999 0.0000 0.0149
vn 0.9999 0.0000 0.0149
vn 0.9999 0.0000 0.0149
vn -0.1287 0.0000 -0.9917
vn -0.1287 0.0000 -0.9917
vn -0.1287 0.0000 -0.9917
vn -0.9996 0.0000 -0.0291
vn -0.9996 0.0000 -0.0291
vn -0.9996 0.0000 -0.0291
vn -0.9998 0.0000 -0.0185
vn -0.9998 0.0000 -0.0185
vn -0.9998 0.0000 -0.0185
vn -0.9988 0.0000 0.0484
vn -0.9988 0.0000 0.0484
vn -0.9988 0.0000 0.0484
vn 0.0284 0.0000 -0.9996
vn 0.0284 0.0000 -0.9996
vn 0.0284 0.0000 -0.9996
vn 0.9998 0.0000 0.0216
vn 0.9998 0.0000 0.0216
vn 0.9998 0.0000 0.0216
vn 0.0508 0.0000 0.9987
vn 0.0508 0.0000 0.9987
vn 0.0508 0.0000 0.9987
vn 0.0889 0.9956 -0.0292
vn 0.0889 0.9956 -0.0292
vn 0.0889 0.9956 -0.0292
vn 0.0371 -0.9992 -0.0152
vn 0.0371 -0.9992 -0.0152
vn 0.0371 -0.9992 -0.0152
vn 0.0302 -0.9989 0.0369
vn 0.0302 -0.9989 0.0369
vn 0.0302 -0.9989 0.0369
vn 0.0346 -0.9964 -0.0770
vn 0.0346 -0.9964 -0.0770
vn 0.0346 -0.9964 -0.0770
vn -0.0445 -0.9950 0.0888
vn -0.0445 -0.9950 0.0888
vn -0.0445 -0.9950 0.0888
vn -0.0104 0.9998 -0.0169
vn -0.0104 0.9998 -0.0169
vn -0.0104 0.9998 -0.0169
vn -0.1006 0.9920 0.0763
vn -0.1006 0.9920 0.0763
vn -0.1006 0.9920 0.0763
vn -0.0587 0.9925 0.1069
vn -0.0587 0.9925 0.1069
vn -0.0587 0.9925 0.1069
vn 0.0179 0.0000 0.9998
vn 0.0179 0.0000 0.9998
vn 0.0179 0.0000 0.9998
vn 0.9992 0.0000 -0.0397
vn 0.9992 0.0000 -0.0397
vn 0.9992 0.0000 -0.0397
vn 0.0183 0.0000 -0.9998
vn 0.0183 0.0000 -0.9998
vn 0.0183 0.0000 -0.9998
vn -1.0000 0.0000 -0.0027
vn -1.0000 0.0000 -0.0027
vn -1.0000 0.0000 -0.0027
vn 0.0795 -0.0092 -0.9968
vn 0.0795 -0.0092 -0.9968
vn 0.0795 -0.0092 -0.9968
vn 0.9984 0.0000 -0.0563
vn 0.9984 0.0000 -0.0563
vn 0.9984 0.0000 -0.0563
vn -0.1297 0.0000 0.9916
vn -0.1297 0.0000 0.9916
vn -0.1297 0.0000 0.9916
vn 0.1046 0.0000 0.9945
vn 0.1046 0.0000 0.9945
vn 0.1046 0.0000 0.9945
vn 0.0112 0.9995 0.0295
vn 0.0112 0.9995 0.0295
vn 0.0112 0.9995 0.0295
vn 0.0521 0.9979 -0.0373
vn 0.0521 0.9979 -0.0373
vn 0.0521 0.9979 -0.0373
vn -0.0717 0.9906 -0.1166
vn -0.0717 0.9906 -0.1166
vn -0.0717 0.9906 -0.1166
vn -0.0252 0.9995 -0.0173
vn -0.0252 0.9995 -0.0173
vn -0.0252 0.9995 -0.0173
vn -0.0725 0.9926 0.0970
vn -0.0725 0.9926 0.0970
vn -0.0725 0.9926 0.0970
vn -0.0057 1.0000 0.0068
vn -0.0057 1.0000 0.0068
vn -0.0057 1.0000 0.0068
vn -0.0390 0.9991 0.0173
vn -0.0390 0.9991 0.0173
vn -0.0390 0.9991 0.0173
vn 0.0441 0.9980 -0.0460
vn 0.0441 0.9980 -0.0460
vn 0.0441 0.9980 -0.0460
vn -0.0100 0.9983 -0.0580
vn -0.0100 0.9983 -0.0580
vn -0.0100 0.9983 -0.0580
vn 0.0000 -0.9999 0.0166
vn 0.0000 -0.9999 0.0166
vn 0.0000 -0.9999 0.0166
vn 0.1048 -0.9892 -0.1023
vn 0.1048 -0.9892 -0.1023
vn 0.1048 -0.9892 -0.1023
vn 0.0223 -0.9988 -0.0425
vn 0.0223 -0.9988 -0.0425
vn 0.0223 -0.9988 -0.0425
vn -0.0070 -0.9995 -0.0292
vn -0.0070 -0.9995 -0.0292
vn -0.0070 -0.9995 -0.0292
vn -0.0199 -0.9991 0.0362
vn -0.0199 -0.9991 0.0362
vn -0.0199 -0.9991 0.0362
vn -0.0105 -0.9999 -0.0068
vn -0.0105 -0.9999 -0.0068
vn -0.0105 -0.9999 -0.0068
vn -0.0571 -0.9984 -0.0057
vn -0.0571 -0.9984 -0.0057
vn -0.0571 -0.9984 -0.0057
vn -0.0889 -0.9956 0.0295
vn -0.0889 -0.9956 0.0295
vn -0.0889 -0.9956 0.0295
vn 0.0292 -0.9989 0.0355
vn 0.0292 -0.9989 0.0355
vn 0.0292 -0.9989 0.0355
vn -0.0086 -0.9998 -0.0172
vn -0.0086 -0.9998 -0.0172
vn -0.0086 -0.9998 -0.0172
vn -0.0092 -0.9989 0.0464
vn -0.0092 -0.9989 0.0464
vn -0.0092 -0.9989 0.0464
vn 0.0360 -0.9985 -0.0414
vn 0.0360 -0.9985 -0.0414
vn 0.0360 -0.9985 -0.0414
vn 0.0173 0.9998 0.0094
vn 0.0173 0.9998 0.0094
vn 0.0173 0.9998 0.0094
vn -0.0086 0.9993 -0.0354
vn -0.0086 0.9993 -0.0354
vn -0.0086 0.9993 -0.0354
vn 0.0097 0.9979 0.0644
vn 0.0097 0.9979 0.0644
vn 0.0097 0.9979 0.0644
vn 0.9999 0.0000 0.0149
vn 0.9999 0.0000 0.0149
vn 0.9999 0.0000 0.0149
vn -0.1287 0.0000 -0.9917
vn -0.1287 0.0000 -0.9917
vn -0.1287 0.0000 -0.9917
vn -0.9996 0.0000 -0.0291
vn -0.9996 0.0000 -0.0291
vn -0.9996 0.0000 -0.0291
vn -0.9998 0.0000 -0.0185
vn -0.9998 0.0000 -0.0185
vn -0.9998 0.0000 -0.0185

vt 0.5000 0.5000  0.0000
vt 0.5000 0.5000  0.0000
vt 0.5000 0.5000  0.0000
vt 0.5000 0.5000  0.0000
vt 0.5000 0.5000  0.0000
vt 0.5000 0.5000  0.0000
vt 0.5000 0.5000  0.0000
vt 0.5000 0.5000  0.0000
vt 0.5000 0.5000  0.0000
vt 0.5000 0.5000  0.0000
vt 0.5000 0.5000  0.0000
vt 0.5000 0.5000  0.0000
vt 0.5000 0.5000  0.0000
vt 0.5000 0.5000  0.0000
vt 0.5000 0.5000  0.0000
vt 0.5000 0.5000  0.0000
vt 0.5000 0.5000  0.0000
vt 0.5000 0.5000  0.0000
vt 0.5000 0.5000  0.0000
vt 0.5000 0.5000  0.0000
vt 0.5000 0.5000  0.0000
vt 0.5000 0.5000  0.0000
vt 0.5000 0.5000  0.0000
vt 0.5000 0.5000  0.0000
vt 0.5000 0.5000  0.0000
vt 0.5000 0.5000  0.0000
vt 0.5000 0.5000  0.0000
vt 0.5000 0.5000  0.0000
vt 0.5000 0.5000  0.0000
vt 0.5000 0.5000  0.0000
vt 0.5000 0.5000  0.0000
vt 0.5000 0.5000  0.0000
vt 0.5000 0.5000  0.0000
vt 0.5000 0.5000  0.0000
vt 0.5000 0.5000  0.0000
vt 0.5000 0.5000  0.0000
vt 0.5000 0.5000  0.0000
vt 0.5000 0.5000  0.0000
vt 0.5000 0.5000  0.0000
vt 0.5000 0.5000  0.0000
vt 0.5000 0.5000  0.0000
vt 0.5000 0.5000  0.0000
vt 0.5000 0.5000  0.0000
vt 0.5000 0.5000  0.0000
vt 0.5000 0.5000  0.0000
vt 0.5000 0.5000  0.0000
vt 0.5000 0.5000  0.0000
vt 0.5000 0.5000  0.0000
vt 0.5000 0.5000  0.0000
vt 0.5000 0.5000  0.0000
vt 0.5000 0.5000  0.0000
vt 0.5000 0.5000  0.0000
vt 0.5000 0.5000  0.0000
vt 0.5000 0.5000  0.0000
vt 0.5000 0.5000  0.0000
vt 0.5000 0.5000  0.0000
vt 0.5000 0.5000  0.0000
vt 0.5000 0.5000  0.0000
vt 0.5000 0.5000  0.0000
vt 0.5000 0.5000  0.0000
vt 0.5000 0.5000  0.0000
vt 0.5000 0.5000  0.0000
vt 0.5000 0.5000  0.0000
vt 0.5000 0.5000  0.0000
vt 0.5000 0.5000  0.0000
vt 0.5000 0.5000  0.0000
vt 0.5000 0.5000  0.0000
vt 0.5000 0.5000  0.0000
vt 0.5000 0.5000  0.0000
vt 0.5000 0.5000  0.0000
vt 0.5000 0.5000  0.0000
vt 0.5000 0.5000  0.0000
vt 0.5000 0.5000  0.0000
vt 0.5000 0.5000  0.0000
vt 0.5000 0.5000  0.0000
vt 0.5000 0.5000  0.0000
vt 0.5000 0.5000  0.0000
vt 0.5000 0.5000  0.0000
vt 0.5000 0.5000  0.0000
vt 0.5000 0.5000  0.0000
vt 0.5000 0.5000  0.0000
vt 0.5000 0.5000  0.0000
vt 0.5000 0.5000  0.0000
vt 0.5000 0.5000  0.0000
vt 0.5000 0.5000  0.0000
vt 0.5000 0.5000  0.0000
vt 0.5000 0.5000  0.0000
vt 0.5000 0.5000  0.0000
vt 0.5000 0.5000  0.0000
vt 0.5000 0.5000  0.0000
vt 0.5000 0.5000  0.0000
vt 0.5000 0.5000  0.0000
vt 0.5000 0.5000  0.0000
vt 0.5000 0.5000  0.0000
vt 0.5000 0.5000  0.0000
vt 0.5000 0.5000  0.0000
vt 0.5000 0.5000  0.0000
vt 0.5000 0.5000  0.0000
vt 0.5000 0.5000  0.0000
vt 0.5000 0.5000  0.0000
vt 0.5000 0.5000  0.0000
vt 0.5000 0.5000  0.0000
vt 0.5000 0.5000  0.0000
vt 0.5000 0.5000  0.0000
vt 0.5000 0.5000  0.0000
vt 0.5000 0.5000  0.0000
vt 0.5000 0.5000  0.0000
vt 0.5000 0.5000  0.0000
vt 0.5000 0.5000  0.0000
vt 0.5000 0.5000  0.0000
vt 0.5000 0.5000  0.0000
vt 0.5000 0.5000  0.0000
vt 0.5000 0.5000  0.0000
vt 0.5000 0.5000  0.0000
vt 0.5000 0.5000  0.0000
vt 0.5000 0.5000  0.0000
vt 0.5000 0.5000  0.0000
vt 0.5000 0.5000  0.0000
vt 0.5000 0.5000  0.0000
vt 0.5000 0.5000  0.0000
vt 0.5000 0.5000  0.0000
vt 0.5000 0.5000  0.0000
vt 0.5000 0.5000  0.0000
vt 0.5000 0.5000  0.0000
vt 0.5000 0.5000  0.0000
vt 0.5000 0.5000  0.0000
vt 0.5000 0.5000  0.0000
vt 0.5000 0.5000  0.0000
vt 0.5000 0.5000  0.0000
vt 0.5000 0.5000  0.0000
vt 0.5000 0.5000  0.0000
vt 0.5000 0.5000  0.0000
vt 0.5000 0.5000  0.0000
vt 0.5000 0.5000  0.0000
vt 0.5000 0.5000  0.0000
vt 0.5000 0.5000  0.0000
vt 0.5000 0.5000  0.0000
vt 0.5000 0.5000  0.0000
vt 0.5000 0.5000  0.0000
vt 0.5000 0.5000  0.0000
vt 0.5000 0.5000  0.0000
vt 0.5000 0.5000  0.0000
vt 0.5000 0.5000  0.0000
vt 0.5000 0.5000  0.0000
vt 0.5000 0.5000  0.0000
vt 0.5000 0.5000  0.0000
vt 0.5000 0.5000  0.0000
vt 0.5000 0.5000  0.0000
vt 0.5000 0.5000  0.0000
vt 0.5000 0.5000  0.0000
vt 0.5000 0.5000  0.0000
vt 0.5000 0.5000  0.0000
vt 0.5000 0.5000  0.0000
vt 0.5000 0.5000  0.0000
vt 0.5000 0.5000  0.0000
vt 0.5000 0.5000  0.0000
vt 0.5000 0.5000  0.0000
vt 0.5000 0.5000  0.0000
vt 0.5000 0.5000  0.0000
vt 0.5000 0.5000  0.0000
vt 0.5000 0.5000  0.0000
vt 0.5000 0.5000  0.0000
vt 0.5000 0.5000  0.0000
vt 0.5000 0.5000  0.0000
vt 0.5000 0.5000  0.0000
vt 0.5000 0.5000  0.0000
vt 0.5000 0.5000  0.0000
vt 0.5000 0.5000  0.0000
vt 0.5000 0.5000  0.0000
vt 0.5000 0.5000  0.0000
vt 0.5000 0.5000  0.0000
vt 0.5000 0.5000  0.0000
vt 0.5000 0.5000  0.0000
vt 0.5000 0.5000  0.0000
vt 0.5000 0.5000  0.0000
vt 0.5000 0.5000  0.0000
vt 0.5000 0.5000  0.0000
vt 0.5000 0.5000  0.0000
vt 0.5000 0.5000  0.0000
vt 0.5000 0.5000  0.0000
vt 0.5000 0.5000  0.0000
vt 0.5000 0.5000  0.0000
vt 0.5000 0.5000  0.0000
vt 0.5000 0.5000  0.0000
vt 0.5000 0.5000  0.0000
vt 0.5000 0.5000  0.0000
vt 0.5000 0.5000  0.0000
vt 0.5000 0.5000  0.0000
vt 0.5000 0.5000  0.0000
vt 0.5000 0.5000  0.0000
vt 0.5000 0.5000  0.0000
vt 0.5000 0.5000  0.0000
vt 0.5000 0.5000  0.0000
vt 0.5000 0.5000  0.0000
vt 0.5000 0.5000  0.0000
vt 0.5000 0.5000  0.0000
vt 0.5000 0.5000  0.0000
vt 0.5000 0.5000  0.0000
vt 0.5000 0.5000  0.0000
vt 0.5000 0.5000  0.0000
vt 0.5000 0.5000  0.0000
vt 0.5000 0.5000  0.0000
vt 0.5000 0.5000  0.0000
vt 0.5000 0.5000  0.0000
vt 0.5000 0.5000  0.0000
vt 0.5000 0.5000  0.0000
vt 0.5000 0.5000  0.0000
vt 0.5000 0.5000  0.0000
vt 0.5000 0.5000  0.0000
vt 0.5000 0.5000  0.0000
vt 0.5000 0.5000  0.0000
vt 0.5000 0.5000  0.0000
vt 0.5000 0.5000  0.0000
vt 0.5000 0.5000  0.0000
vt 0.5000 0.5000  0.0000
vt 0.5000 0.5000  0.0000
vt 0.5000 0.5000  0.0000
vt 0.5000 0.5000  0.0000
vt 0.5000 0.5000  0.0000
vt 0.5000 0.5000  0.0000
vt 0.5000 0.5000  0.0000
vt 0.5000 0.5000  0.0000
vt 0.5000 0.5000  0.0000
vt 0.5000 0.5000  0.0000
vt 0.5000 0.5000  0.0000
vt 0.5000 0.5000  0.0000
vt 0.5000 0.5000  0.0000
vt 0.5000 0.5000  0.0000
vt 0.5000 0.5000  0.0000
vt 0.5000 0.5000  0.0000
vt 0.5000 0.5000  0.0000
vt 0.5000 0.5000  0.0000
vt 0.5000 0.5000  0.0000
vt 0.5000 0.5000  0.0000
vt 0.5000 0.5000  0.0000
vt 0.5000 0.5000  0.0000
vt 0.5000 0.5000  0.0000
vt 0.5000 0.5000  0.0000
vt 0.5000 0.5000  0.0000
vt 0.5000 0.5000  0.0000
vt 0.5000 0.5000  0.0000
vt 0.5000 0.5000  0.0000
vt 0.5000 0.5000  0.0000
vt 0.5000 0.5000  0.0000
vt 0.5000 0.5000  0.0000
vt 0.5000 0.5000  0.0000
vt 0.5000 0.5000  0.0000
vt 0.5000 0.5000  0.0000
vt 0.5000 0.5000  0.0000
vt 0.5000 0.5000  0.0000
vt 0.5000 0.5000  0.0000
vt 0.5000 0.5000  0.0000
vt 0.5000 0.5000  0.0000
vt 0.5000 0.5000  0.0000
vt 0.5000 0.5000  0.0000
vt 0.5000 0.5000  0.0000
vt 0.5000 0.5000  0.0000
vt 0.5000 0.5000  0.0000
vt 0.5000 0.5000  0.0000
vt 0.5000 0.5000  0.0000
vt 0.5000 0.5000  0.0000
vt 0.5000 0.5000  0.0000
vt 0.5000 0.5000  0.0000
vt 0.5000 0.5000  0.0000
vt 0.5000 0.5000  0.0000
vt 0.5000 0.5000  0.0000
vt 0.5000 0.5000  0.0000
vt 0.5000 0.5000  0.0000
vt 0.5000 0.5000  0.0000
vt 0.5000 0.5000  0.0000
vt 0.5000 0.5000  0.0000
vt 0.5000 0.5000  0.0000
vt 0.5000 0.5000  0.0000
vt 0.5000 0.5000  0.0000
vt 0.5000 0.5000  0.0000
vt 0.5000 0.5000  0.0000
vt 0.5000 0.5000  0.0000
vt 0.5000 0.5000  0.0000
vt 0.5000 0.5000  0.0000
vt 0.5000 0.5000  0.0000
vt 0.5000 0.5000  0.0000
vt 0.5000 0.5000  0.0000
vt 0.5000 0.5000  0.0000
vt 0.5000 0.5000  0.0000
vt 0.5000 0.5000  0.0000
vt 0.5000 0.5000  0.0000
vt 0.5000 0.5000  0.0000
vt 0.5000 0.5000  0.0000
g mesh_0
usemtl mat_0
f 1/1/1 2/2/2 3/3/3
f 4/4/4 5/5/5 6/6/6
f 7/7/7 8/8/8 9/9/9
f 10/10/10 11/11/11 12/12/12
f 13/13/13 14/14/14 15/15/15
f 16/16/16 17/17/17 18/18/18
f 19/19/19 20/20/20 21/21/21
f 22/22/22 23/23/23 24/24/24
f 25/25/25 26/26/26 27/27/27
f 28/28/28 29/29/29 30/30/30
f 31/31/31 32/32/32 33/33/33
f 34/34/34 35/35/35 36/36/36
f 37/37/37 38/38/38 39/39/39
f 40/40/40 41/41/41 42/42/42
f 43/43/43 44/44/44 45/45/45
f 46/46/46 47/47/47 48/48/48
f 49/49/49 50/50/50 51/51/51
f 52/52/52 53/53/53 54/54/54
f 55/55/55 56/56/56 57/57/57
f 58/58/58 59/59/59 60/60/60
f 61/61/61 62/62/62 63/63/63
f 64/64/64 65/65/65 66/66/66
f 67/67/67 68/68/68 69/69/69
f 70/70/70 71/71/71 72/72/72
f 73/73/73 74/74/74 75/75/75
f 76/76/76 77/77/77 78/78/78
f 79/79/79 80/80/80 81/81/81
f 82/82/82 83/83/83 84/84/84
f 85/85/85 86/86/86 87/87/87
f 88/88/88 89/89/89 90/90/90
f 91/91/91 92/92/92 93/93/93
f 94/94/94 95/95/95 96/96/96
f 97/97/97 98/98/98 99/99/99
f 100/100/100 101/101/101 102/102/102
f 103/103/103 104/104/104 105/105/105
f 106/106/106 107/107/107 108/108/108
f 109/109/109 110/110/110 111/111/111
f 112/112/112 113/113/113 114/114/114
f 115/115/115 116/116/116 117/117/117
f 118/118/118 119/119/119 120/120/120
f 121/121/121 122/122/122 123/123/123
f 124/124/124 125/125/125 126/126/126
f 127/127/127 128/128/128 129/129/129
f 130/130/130 131/131/131 132/132/132
f 133/133/133 134/134/134 135/135/135
f 136/136/136 137/137/137 138/138/138
f 139/139/139 140/140/140 141/141/141
f 142/142/142 143/143/143 144/144/144
f 145/145/145 146/146/146 147/147/147
f 148/148/148 149/149/149 150/150/150
f 151/151/151 152/152/152 153/153/153
f 154/154/154 155/155/155 156/156/156
f 157/157/157 158/158/158 159/159/159
f 160/160/160 161/161/161 162/162/162
f 163/163/163 164/164/164 165/165/165
f 166/166/166 167/167/167 168/168/168
f 169/169/169 170/170/170 171/171/171
f 172/172/172 173/173/173 174/174/174
f 175/175/175 176/176/176 177/177/177
f 178/178/178 179/179/179 180/180/180
f 181/181/181 182/182/182 183/183/183
f 184/184/184 185/185/185 186/186/186
f 187/187/187 188/188/188 189/189/189
f 190/190/190 191/191/191 192/192/192
f 193/193/193 194/194/194 195/195/195
f 196/196/196 197/197/197 198/198/198
f 199/199/199 200/200/200 201/201/201
f 202/202/202 203/203/203 204/204/204
f 205/205/205 206/206/206 207/207/207
f 208/208/208 209/209/209 210/210/210
f 211/211/211 212/212/212 213/213/213
f 214/214/214 215/215/215 216/216/216
f 217/217/217 218/218/218 219/219/219
f 220/220/220 221/221/221 222/222/222
f 223/223/223 224/224/224 225/225/225
f 226/226/226 227/227/227 228/228/228
f 229/229/229 230/230/230 231/231/231
f 232/232/232 233/233/233 234/234/234
f 235/235/235 236/236/236 237/237/237
f 238/238/238 239/239/239 240/240/240
f 241/241/241 242/242/242 243/243/243
f 244/244/244 245/245/245 246/246/246
f 247/247/247 248/248/248 249/249/249
f 250/250/250 251/251/251 252/252/252
f 253/253/253 254/254/254 255/255/255
f 256/256/256 257/257/257 258/258/258
f 259/259/259 260/260/260 261/261/261
f 262/262/262 263/263/263 264/264/264
f 265/265/265 266/266/266 267/267/267
f 268/268/268 269/269/269 270/270/270
f 271/271/271 272/272/272 273/273/273
f 274/274/274 275/275/275 276/276/276
f 277/277/277 278/278/278 279/279/279
f 280/280/280 281/281/281 282/282/282
f 283/283/283 284/284/284 285/285/285
f 286/286/286 287/287/287 288/288/288